<?xml version="1.0" encoding="UTF-8" standalone="no"?><svg xmlns="http://www.w3.org/2000/svg" xmlns:xlink="http://www.w3.org/1999/xlink" contentScriptType="application/ecmascript" contentStyleType="text/css" height="278px" preserveAspectRatio="none" style="width:282px;height:278px;" version="1.1" viewBox="0 0 282 278" width="282px" zoomAndPan="magnify"><defs><filter height="300%" id="f1ni7i3xbvpf1a" width="300%" x="-1" y="-1"><feGaussianBlur result="blurOut" stdDeviation="2.0"/><feColorMatrix in="blurOut" result="blurOut2" type="matrix" values="0 0 0 0 0 0 0 0 0 0 0 0 0 0 0 0 0 0 .4 0"/><feOffset dx="4.0" dy="4.0" in="blurOut2" result="blurOut3"/><feBlend in="SourceGraphic" in2="blurOut3" mode="normal"/></filter></defs><g><line style="stroke:#A80036;stroke-width:1.0;stroke-dasharray:5.0,5.0;" x1="36" x2="36" y1="40.2969" y2="235.0938"/><line style="stroke:#A80036;stroke-width:1.0;stroke-dasharray:5.0,5.0;" x1="162" x2="162" y1="40.2969" y2="235.0938"/><line style="stroke:#A80036;stroke-width:1.0;stroke-dasharray:5.0,5.0;" x1="245" x2="245" y1="40.2969" y2="235.0938"/><rect fill="#FEFECE" filter="url(#f1ni7i3xbvpf1a)" height="30.2969" style="stroke:#A80036;stroke-width:1.5;" width="58" x="5" y="5"/><text fill="#000000" font-family="sans-serif" font-size="14" lengthAdjust="spacing" textLength="44" x="12" y="24.9951">cvinfo</text><rect fill="#FEFECE" filter="url(#f1ni7i3xbvpf1a)" height="30.2969" style="stroke:#A80036;stroke-width:1.5;" width="58" x="5" y="234.0938"/><text fill="#000000" font-family="sans-serif" font-size="14" lengthAdjust="spacing" textLength="44" x="12" y="254.0889">cvinfo</text><rect fill="#FEFECE" filter="url(#f1ni7i3xbvpf1a)" height="30.2969" style="stroke:#A80036;stroke-width:1.5;" width="90" x="115" y="5"/><text fill="#000000" font-family="sans-serif" font-size="14" lengthAdjust="spacing" textLength="76" x="122" y="24.9951">/api/cvinfo</text><rect fill="#FEFECE" filter="url(#f1ni7i3xbvpf1a)" height="30.2969" style="stroke:#A80036;stroke-width:1.5;" width="90" x="115" y="234.0938"/><text fill="#000000" font-family="sans-serif" font-size="14" lengthAdjust="spacing" textLength="76" x="122" y="254.0889">/api/cvinfo</text><rect fill="#FEFECE" filter="url(#f1ni7i3xbvpf1a)" height="30.2969" style="stroke:#A80036;stroke-width:1.5;" width="49" x="219" y="5"/><text fill="#000000" font-family="sans-serif" font-size="14" lengthAdjust="spacing" textLength="35" x="226" y="24.9951">login</text><rect fill="#FEFECE" filter="url(#f1ni7i3xbvpf1a)" height="30.2969" style="stroke:#A80036;stroke-width:1.5;" width="49" x="219" y="234.0938"/><text fill="#000000" font-family="sans-serif" font-size="14" lengthAdjust="spacing" textLength="35" x="226" y="254.0889">login</text><polygon fill="#A80036" points="150,67.4297,160,71.4297,150,75.4297,154,71.4297" style="stroke:#A80036;stroke-width:1.0;"/><line style="stroke:#A80036;stroke-width:1.0;" x1="36" x2="156" y1="71.4297" y2="71.4297"/><text fill="#000000" font-family="sans-serif" font-size="13" lengthAdjust="spacing" textLength="102" x="43" y="66.3638">request content</text><polygon fill="#A80036" points="47,96.5625,37,100.5625,47,104.5625,43,100.5625" style="stroke:#A80036;stroke-width:1.0;"/><line style="stroke:#A80036;stroke-width:1.0;" x1="41" x2="161" y1="100.5625" y2="100.5625"/><text fill="#000000" font-family="sans-serif" font-size="13" lengthAdjust="spacing" textLength="24" x="53" y="95.4966">403</text><polygon fill="#A80036" points="233.5,125.6953,243.5,129.6953,233.5,133.6953,237.5,129.6953" style="stroke:#A80036;stroke-width:1.0;"/><line style="stroke:#A80036;stroke-width:1.0;" x1="36" x2="239.5" y1="129.6953" y2="129.6953"/><text fill="#000000" font-family="sans-serif" font-size="13" lengthAdjust="spacing" textLength="105" x="43" y="124.6294">send credentials</text><polygon fill="#A80036" points="47,154.8281,37,158.8281,47,162.8281,43,158.8281" style="stroke:#A80036;stroke-width:1.0;"/><line style="stroke:#A80036;stroke-width:1.0;" x1="41" x2="244.5" y1="158.8281" y2="158.8281"/><text fill="#000000" font-family="sans-serif" font-size="13" lengthAdjust="spacing" textLength="25" x="53" y="153.7622">JWT</text><polygon fill="#A80036" points="150,183.9609,160,187.9609,150,191.9609,154,187.9609" style="stroke:#A80036;stroke-width:1.0;"/><line style="stroke:#A80036;stroke-width:1.0;" x1="36" x2="156" y1="187.9609" y2="187.9609"/><text fill="#000000" font-family="sans-serif" font-size="13" lengthAdjust="spacing" textLength="102" x="43" y="182.895">request content</text><polygon fill="#A80036" points="47,213.0938,37,217.0938,47,221.0938,43,217.0938" style="stroke:#A80036;stroke-width:1.0;"/><line style="stroke:#A80036;stroke-width:1.0;" x1="41" x2="161" y1="217.0938" y2="217.0938"/><text fill="#000000" font-family="sans-serif" font-size="13" lengthAdjust="spacing" textLength="49" x="53" y="212.0278">content</text><!--MD5=[65102e79ed3d45aceb191a76c78c7378]
@startuml
participant cvinfo as cvinfo
participant "/api/cvinfo" as api
participant login as login
cvinfo -> api : request content
api -> cvinfo : 403
cvinfo -> login : send credentials
login -> cvinfo : JWT
cvinfo -> api : request content
api -> cvinfo : content
@enduml

PlantUML version 1.2021.2beta8(Unknown compile time)
(GPL source distribution)
Java Runtime: Java(TM) SE Runtime Environment
JVM: Java HotSpot(TM) 64-Bit Server VM
Default Encoding: UTF-8
Language: en
Country: US
--></g></svg>